<?xml version="1.0" encoding="UTF-8"?>
<svg width="8mm" height="8mm" version="1.1" viewBox="0 0 8 8" xmlns="http://www.w3.org/2000/svg">
<path d="M0,0h1v1h-1z M1,0h1v1h-1z M6,0h1v1h-1z M7,0h1v1h-1z M0,1h1v1h-1z M1,1h1v1h-1z M2,1h1v1h-1z M3,1h1v1h-1z M4,1h1v1h-1z M5,1h1v1h-1z M6,1h1v1h-1z M7,1h1v1h-1z M1,2h1v1h-1z M2,2h1v1h-1z M3,2h1v1h-1z M4,2h1v1h-1z M5,2h1v1h-1z M6,2h1v1h-1z M1,3h1v1h-1z M2,3h1v1h-1z M3,3h1v1h-1z M4,3h1v1h-1z M5,3h1v1h-1z M6,3h1v1h-1z M1,4h1v1h-1z M3,4h1v1h-1z M4,4h1v1h-1z M6,4h1v1h-1z M1,5h1v1h-1z M2,5h1v1h-1z M3,5h1v1h-1z M4,5h1v1h-1z M5,5h1v1h-1z M6,5h1v1h-1z M1,6h1v1h-1z M2,6h1v1h-1z M5,6h1v1h-1z M6,6h1v1h-1z M2,7h1v1h-1z M3,7h1v1h-1z M4,7h1v1h-1z M5,7h1v1h-1z " fill="#df973b" stroke-linejoin="round" stroke-width="3.7528" style="paint-order:markers stroke fill"/>
</svg>
